<svg xmlns="http://www.w3.org/2000/svg" viewBox="0 0 800 500"><defs><linearGradient id="g" x1="0" y1="0" x2="1" y2="1"><stop offset="0" stop-color="#052e16"/><stop offset="1" stop-color="#166534"/></linearGradient></defs><rect width="800" height="500" fill="url(#g)"/><circle cx="640" cy="110" r="70" fill="#facc15" opacity=".9"/><path d="M0 400 Q200 340 400 390 T800 380 V500 H0 Z" fill="#052e16" opacity=".7"/><g fill="#0f172a"><circle cx="400" cy="180" r="46"/><path d="M340 240 q60 -30 120 0 l20 140 h-160 Z"/><path d="M455 250 l60 -70 18 16 -60 74 Z"/></g><path d="M392 150 l8 18 20 3 -14 14 3 20 -17 -10 -17 10 3 -20 -14 -14 20 -3 Z" fill="#facc15"/><rect x="352" y="168" width="96" height="14" rx="7" fill="#166534"/></svg>
